<?xml version="1.0" standalone="no"?>
<!DOCTYPE svg PUBLIC "-//W3C//DTD SVG 1.1//EN" "http://www.w3.org/Graphics/SVG/1.1/DTD/svg11.dtd" >
<svg xmlns="http://www.w3.org/2000/svg">
<metadata></metadata>
<defs>
<font id="mtt_milanoregular" horiz-adv-x="1290" >
<font-face units-per-em="2048" ascent="1518" descent="-530" />
<missing-glyph horiz-adv-x="532" />
<glyph unicode="&#xfb01;" horiz-adv-x="1130" d="M25 776l88 125h123v82q0 496 426 496v-133q-149 0 -220 -92.5t-71 -303.5v-49h604v-901h-139v776h-465v-776h-135v776h-211zM799 1296q0 43 31 74t75 31q43 0 74 -31t31 -74q0 -44 -31 -75t-74 -31q-44 0 -75 31t-31 75z" />
<glyph unicode="&#xfb02;" horiz-adv-x="1138" d="M25 776l88 125h123v82q0 496 426 496v-133q-149 0 -220 -92.5t-71 -303.5v-49h291v-125h-291v-776h-135v776h-211zM840 0v1454h139v-1454h-139z" />
<glyph horiz-adv-x="2048" />
<glyph horiz-adv-x="2048" />
<glyph unicode="&#xd;" horiz-adv-x="2048" />
<glyph unicode=" "  horiz-adv-x="532" />
<glyph unicode="&#x09;" horiz-adv-x="532" />
<glyph unicode="&#xa0;" horiz-adv-x="532" />
<glyph unicode="!" horiz-adv-x="696" d="M242 82q0 43 31 73.5t75 30.5q43 0 75 -31t32 -73q0 -44 -32 -75.5t-75 -31.5q-44 0 -75 31.5t-31 75.5zM272 377v1046h152v-1046h-152z" />
<glyph unicode="&#x22;" horiz-adv-x="761" d="M133 1352q0 41 28.5 68.5t69.5 27.5q42 0 70.5 -27.5t28.5 -68.5l-72 -451h-53zM432 1352q0 41 28.5 68.5t69.5 27.5q42 0 70.5 -27.5t28.5 -68.5l-72 -451h-53z" />
<glyph unicode="#" horiz-adv-x="1517" d="M100 356v140h275l69 405h-268v139h293l66 383h147l-66 -383h410l68 383h147l-67 -383h243v-139h-268l-72 -405h277v-140h-301l-64 -356h-147l63 356h-405l-62 -356h-147l61 356h-252zM522 496h408l71 405h-409z" />
<glyph unicode="$" horiz-adv-x="1253" d="M162 147l78 136q181 -102 321 -136v527l-139 53q-100 40 -168 131q-70 94 -70 217q0 163 111 268q114 105 260 105h6v143h148v-153q134 -21 317 -121l-78 -133q-119 72 -239 98v-498l147 -57q108 -44 172 -141.5t64 -216.5q0 -170 -115 -279q-112 -106 -268 -115v-143 h-148v158q-203 42 -399 157zM340 1075q0 -64 35 -118t94 -78l92 -37v450q-108 -10 -164.5 -73t-56.5 -144zM709 131q93 3 159 72q68 71 68 166q0 74 -42.5 135t-109.5 86l-75 28v-487z" />
<glyph unicode="%" horiz-adv-x="1576" d="M76 1141q0 128 92 217q93 90 221 90t221 -90q92 -89 92 -217q0 -130 -92 -219q-91 -88 -221 -88t-221 88q-92 89 -92 219zM197 1141q0 -78 57 -133.5t135 -55.5q80 0 137.5 55.5t57.5 133.5t-57.5 133t-137.5 55q-78 0 -135 -55t-57 -133zM283 0l868 1423h147l-868 -1423 h-147zM877 283q0 128 92 217q93 90 221 90t221 -90q92 -89 92 -217q0 -131 -92 -220q-91 -88 -221 -88t-221 88q-92 89 -92 220zM997 283q0 -78 57.5 -133.5t135.5 -55.5q80 0 137 55.5t57 133.5t-58 134t-136 56t-135.5 -56t-57.5 -134z" />
<glyph unicode="&#x26;" horiz-adv-x="1275" d="M121 305q0 256 235 344l138 51q-112 43 -181 142t-69 221q0 156 114 270q115 115 271 115q188 0 303 -160l-127 -51q-19 33 -69.5 56.5t-106.5 23.5q-99 0 -176 -74q-75 -69 -78 -180q3 -133 114 -225q114 -95 226 -52l305 115l70 -121l-240 -92l399 -688h-170l-80 139 q-364 -167 -520 -164q-133 3 -243 99q-109 95 -115 231zM270 305q0 -84 60 -135.5t149 -56.5q73 -3 164 30q134 49 289 115l-219 375l-287 -109q-156 -58 -156 -219z" />
<glyph unicode="'" horiz-adv-x="462" d="M133 1352q0 41 28.5 68.5t69.5 27.5q42 0 70.5 -27.5t28.5 -68.5l-72 -451h-53z" />
<glyph unicode="(" horiz-adv-x="849" d="M201 573q0 239 114 512q118 277 322 480l137 -70q-206 -206 -312 -443.5t-106 -478.5q0 -243 105.5 -479.5t312.5 -443.5l-137 -68q-202 202 -320 477q-116 274 -116 514z" />
<glyph unicode=")" horiz-adv-x="849" d="M76 -350q207 207 312.5 443.5t105.5 479.5q0 241 -106 478.5t-312 443.5l137 70q204 -204 319 -480q117 -273 117 -512q0 -238 -117 -514q-118 -277 -319 -477z" />
<glyph unicode="*" horiz-adv-x="1048" d="M172 1116l45 137l248 -94l-10 264h141l-10 -264l248 94l45 -137l-256 -72l163 -206l-114 -86l-148 223l-147 -223l-115 86l166 206z" />
<glyph unicode="+" horiz-adv-x="1138" d="M145 463v139h351v352h145v-352h352v-139h-352v-352h-145v352h-351z" />
<glyph unicode="," horiz-adv-x="468" d="M129 84q0 41 33.5 71.5t73.5 30.5q42 0 73 -29.5t31 -72.5q0 -20 -23 -74l-143 -284h-45v358z" />
<glyph unicode="-" horiz-adv-x="864" d="M145 463v139h574v-139h-574z" />
<glyph unicode="." horiz-adv-x="456" d="M123 84q0 43 31 72.5t75 29.5q43 0 74 -30t31 -72q0 -44 -31.5 -76.5t-73.5 -32.5q-44 0 -75 32t-31 77z" />
<glyph unicode="/" horiz-adv-x="1107" d="M88 0l772 1423h160l-772 -1423h-160z" />
<glyph unicode="0" horiz-adv-x="1361" d="M88 713q0 314 162 524q163 211 432 211q265 0 428 -211q164 -212 164 -524q0 -315 -164 -527q-163 -211 -428 -211q-269 0 -432 211q-162 210 -162 527zM244 713q0 -254 116 -422t322 -168q203 0 319 168q117 169 117 422q0 250 -117 420q-115 167 -319 167 q-207 0 -322 -167q-116 -168 -116 -420z" />
<glyph unicode="1" horiz-adv-x="589" d="M121 1145v67l270 252v-1464h-151v1145h-119z" />
<glyph unicode="2" horiz-adv-x="1128" d="M111 0l651 819q63 78 63 187q0 125 -75 209t-193 85q-120 -1 -193 -84.5t-73 -209.5h-156q0 188 119 313q120 129 303 129q181 0 301 -129q123 -126 123 -313q0 -142 -104 -273l-469 -594h569v-139h-866z" />
<glyph unicode="3" horiz-adv-x="1128" d="M127 274h164q42 -70 112.5 -112.5t149.5 -42.5q127 0 217 90q88 91 88 221q0 132 -80 221q-77 92 -205 92q-136 0 -231 -151h-186l532 692h-561v139h860l-434 -549q188 15 324 -118q137 -131 137 -326q0 -189 -135 -321q-137 -134 -326 -134q-143 0 -262 84 q-117 83 -164 215z" />
<glyph unicode="4" horiz-adv-x="1153" d="M16 385l863 1079v-940h165v-139h-165v-385h-148v385h-715zM307 524h424v537z" />
<glyph unicode="5" horiz-adv-x="1110" d="M94 274h162q42 -70 112 -110.5t154 -40.5q125 0 215 90t90 217q0 131 -79 219q-81 90 -205 90q-87 0 -163 -39t-120 -108l-137 41l133 790h631l35 -139h-541l-84 -473q98 76 246 76q187 0 313 -129q127 -130 127 -328q0 -176 -139 -315q-140 -140 -322 -140 q-142 0 -264 84q-117 83 -164 215z" />
<glyph unicode="6" horiz-adv-x="1091" d="M80 451q0 143 92 307l369 665h164l-297 -522q48 25 159 25q147 0 277 -127q131 -125 131 -348q0 -199 -133 -338q-132 -138 -316 -138q-183 0 -315 138q-131 137 -131 338zM236 451q0 -145 78.5 -236.5t211.5 -91.5q132 0 212.5 92.5t80.5 235.5t-80.5 235t-212.5 92 q-129 0 -209.5 -92.5t-80.5 -234.5z" />
<glyph unicode="7" horiz-adv-x="1030" d="M61 1284v139h969l-702 -1423h-168l631 1284h-730z" />
<glyph unicode="8" horiz-adv-x="1132" d="M129 412q0 115 55 213t150 159q-141 111 -141 293q0 154 108 262q112 109 264 109q155 0 264 -109t109 -262q0 -185 -141 -293q96 -61 151.5 -159t55.5 -213q0 -180 -130 -310q-127 -127 -309 -127q-179 0 -309 127q-127 127 -127 310zM276 412q0 -121 84 -205 q87 -84 205 -84q121 0 205 84q86 83 86 205q0 117 -84 204q-83 86 -207 86q-122 0 -205 -86q-84 -84 -84 -204zM340 1077q0 -93 66 -162q68 -65 159 -65q94 0 160 66.5t66 160.5q0 92 -66 158q-65 68 -160 68q-91 0 -159 -68q-66 -66 -66 -158z" />
<glyph unicode="9" horiz-adv-x="1054" d="M80 973q0 199 131 336q133 139 317 139q183 0 316 -139q131 -137 131 -336q0 -143 -92 -307l-379 -666h-168l313 524q-51 -26 -162 -26q-145 0 -278 127q-129 126 -129 348zM236 973q0 -143 80 -235.5t212 -92.5q129 0 210 93t81 235q0 145 -79 236t-212 91 q-132 0 -212 -92t-80 -235z" />
<glyph unicode=":" horiz-adv-x="538" d="M164 84q0 43 31 72.5t75 29.5q43 0 74 -30t31 -72q0 -44 -31.5 -76.5t-73.5 -32.5q-44 0 -75 32t-31 77zM164 823q0 43 31 73t75 30q43 0 74 -30t31 -73q0 -44 -31.5 -76t-73.5 -32q-44 0 -75 32t-31 76z" />
<glyph unicode=";" horiz-adv-x="468" d="M129 84q0 41 33.5 71.5t73.5 30.5q42 0 73 -29.5t31 -72.5q0 -20 -23 -74l-143 -284h-45v358zM129 823q0 43 31.5 73t75.5 30q43 0 73.5 -30t30.5 -73q0 -44 -31 -76t-73 -32q-44 0 -75.5 32t-31.5 76z" />
<glyph unicode="&#x3c;" horiz-adv-x="1181" d="M145 532l891 457v-164l-585 -293l585 -292v-164z" />
<glyph unicode="=" horiz-adv-x="1204" d="M145 297v139h914v-139h-914zM145 629v139h914v-139h-914z" />
<glyph unicode="&#x3e;" horiz-adv-x="1177" d="M145 76v164l580 292l-580 293v164l887 -457z" />
<glyph unicode="?" horiz-adv-x="970" d="M96 1006v57q0 169 107 276q109 109 260 109q153 0 262 -109t109 -260q0 -130 -82 -231l-215 -264v-154h-152v207l250 307q47 62 47 135q0 91 -63.5 155t-155.5 64t-154.5 -66.5t-62.5 -168.5v-57h-150zM356 84q0 42 31 72t74 30t74.5 -30.5t31.5 -71.5q0 -44 -31.5 -76.5 t-74.5 -32.5q-44 0 -74.5 32t-30.5 77z" />
<glyph unicode="@" horiz-adv-x="1904" d="M84 487q0 219 70 405t194 306q123 122 278.5 186t327.5 64q164 0 317.5 -62.5t276.5 -179.5q127 -118 201 -306.5t74 -412.5q0 -252 -121 -385q-119 -131 -268 -131q-83 0 -149 38t-87 93q-33 -57 -118.5 -92t-200.5 -35q-120 0 -213 78q-91 79 -91 193q0 125 80 201.5 t230 80.5l264 4v97q0 47 -21.5 82t-54 53t-64 26.5t-59.5 8.5q-155 0 -254 -105l-84 92q122 140 338 140q155 0 244.5 -82.5t89.5 -214.5v-348q0 -86 40.5 -132.5t109.5 -46.5q87 0 163 88t76 297q0 193 -62 353.5t-169 259.5q-103 97 -229.5 148.5t-258.5 51.5 q-134 0 -259.5 -51t-229.5 -149q-107 -99 -169.5 -260t-62.5 -353q0 -206 62 -363.5t170 -244.5q209 -166 489 -166v-147q-111 1 -214.5 22.5t-202.5 66t-180.5 119t-143 173.5t-95.5 237t-34 303zM711 246q0 -60 50 -102t118 -42q129 0 197 57.5t73 147.5v99q-99 2 -264 -5 q-174 -9 -174 -155z" />
<glyph unicode="A" d="M10 0l635 1464l635 -1464h-164l-162 387h-618l-162 -387h-164zM395 526h500l-250 596z" />
<glyph unicode="B" horiz-adv-x="1222" d="M166 0v1423h457q146 0 254 -108q110 -107 110 -256t-110 -256q107 -56 170 -154.5t69 -222.5q0 -176 -125 -301t-305 -125h-520zM313 147h373q113 0 193 80q82 82 82 199q0 112 -80 195q-75 81 -195 81h-373v-555zM313 842h310q85 0 145 63q63 63 63 154q0 92 -59 154.5 t-149 62.5h-310v-434z" />
<glyph unicode="C" horiz-adv-x="1478" d="M78 713q0 297 217 514q218 221 520 221q168 0 304 -66t224 -184l-120 -96q-183 198 -408 198q-244 0 -412 -174q-170 -173 -170 -413q0 -242 170 -418q169 -172 412 -172q239 0 426 211l133 -105q-242 -254 -559 -254q-295 0 -516 218t-221 520z" />
<glyph unicode="D" horiz-adv-x="1415" d="M166 0v1423h444q286 0 498 -209q213 -207 213 -501q0 -289 -207 -502q-205 -211 -504 -211h-444zM313 139h297q222 0 389 170q166 169 166 404q0 229 -161 399q-163 172 -394 172h-297v-1145z" />
<glyph unicode="E" horiz-adv-x="1193" d="M166 0v1423h881v-139h-734v-469h598v-139h-598v-537h740v-139h-887z" />
<glyph unicode="F" horiz-adv-x="1085" d="M166 0v1423h840v-139h-693v-469h578v-139h-578v-676h-147z" />
<glyph unicode="G" horiz-adv-x="1490" d="M76 713q0 297 217 514q218 221 520 221q149 0 272 -49.5t199 -124.5l-131 -111q-62 59 -156 98t-184 39q-244 0 -412 -174q-170 -173 -170 -413q0 -242 170 -418q169 -172 412 -172q272 0 412 186v334h-412v139h559v-546q-91 -117 -234 -189t-325 -72q-295 0 -516 218 t-221 520z" />
<glyph unicode="H" horiz-adv-x="1497" d="M174 0v1423h148v-641h854v641h147v-1423h-147v643h-854v-643h-148z" />
<glyph unicode="I" horiz-adv-x="489" d="M170 0v1423h152v-1423h-152z" />
<glyph unicode="J" horiz-adv-x="579" d="M-125 -305q185 0 284 120.5t99 342.5v1265h152v-1265q0 -276 -148 -441q-142 -161 -387 -161v139z" />
<glyph unicode="K" horiz-adv-x="1302" d="M166 0v1423h147v-780l713 780h186l-567 -620l606 -803h-182l-522 696l-234 -256v-440h-147z" />
<glyph unicode="L" horiz-adv-x="1077" d="M166 0v1423h147v-1284h713v-139h-860z" />
<glyph unicode="M" horiz-adv-x="1667" d="M176 0v1464l658 -759l657 759v-1464h-148v1092l-509 -592l-510 592v-1092h-148z" />
<glyph unicode="N" horiz-adv-x="1511" d="M176 0v1464l1012 -1128v1087h147v-1464l-1011 1128v-1087h-148z" />
<glyph unicode="O" horiz-adv-x="1648" d="M88 713q0 297 217 514q218 221 520 221q297 0 514 -217q222 -216 222 -518q0 -296 -215 -514q-212 -215 -521 -224q-295 0 -516 218t-221 520zM244 713q0 -242 170 -418q169 -172 411 -172q241 0 410 172q170 176 170 418q0 240 -170 413q-168 174 -410 174 q-243 0 -411 -174q-170 -173 -170 -413z" />
<glyph unicode="P" horiz-adv-x="1118" d="M166 0v1423h479q183 0 301 -106q119 -107 119 -277q0 -176 -119 -280q-117 -105 -301 -105h-332v-655h-147zM313 795h332q120 0 192 65.5t72 179.5q0 117 -70.5 180.5t-193.5 63.5h-332v-489z" />
<glyph unicode="Q" horiz-adv-x="1640" d="M88 713q0 304 217 518q217 217 520 217q306 0 521 -215t215 -520q0 -188 -83.5 -342.5t-220.5 -253.5l304 -307v-207l-437 436q-137 -64 -299 -64q-302 0 -520 218q-217 217 -217 520zM244 713q0 -242 170 -418q169 -172 411 -172q241 0 410 172q170 176 170 418 q0 240 -170 413q-168 174 -410 174q-243 0 -411 -174q-170 -173 -170 -413z" />
<glyph unicode="R" horiz-adv-x="1271" d="M166 0v1423h500q196 0 314 -105.5t118 -277.5q0 -132 -78.5 -230.5t-204.5 -131.5l344 -678h-168l-327 655h-351v-655h-147zM313 795h353q136 0 211 64.5t75 180.5q0 117 -75.5 180.5t-210.5 63.5h-353v-489z" />
<glyph unicode="S" horiz-adv-x="1169" d="M92 147l78 136q219 -160 446 -160q110 0 191 72q80 74 80 174q0 88 -50.5 159t-142.5 107l-215 80q-153 57 -228 144t-75 220q0 165 117 267q120 102 295 102q119 0 198 -33q86 -30 193 -106l-78 -135q-175 126 -313 126q-133 0 -195 -71q-61 -70 -61 -150 q0 -141 186 -211l234 -90q290 -113 290 -409q0 -181 -124 -287q-125 -107 -302 -107q-126 0 -267.5 45.5t-256.5 126.5z" />
<glyph unicode="T" horiz-adv-x="1028" d="M31 1284v139h966v-139h-409v-1284h-148v1284h-409z" />
<glyph unicode="U" horiz-adv-x="1423" d="M162 526v897h147v-897q0 -169 117 -286q120 -117 287 -117q170 0 286 119q117 120 117 284v897h148v-897q0 -227 -162 -389t-389 -162q-236 0 -394 162q-157 165 -157 389z" />
<glyph unicode="V" horiz-adv-x="1331" d="M31 1423h164l471 -1116l471 1116h163l-634 -1464z" />
<glyph unicode="W" horiz-adv-x="1966" d="M31 1423h164l473 -1136l239 573l-243 563h159l160 -383l160 383h160l-244 -563l239 -573l474 1136h163l-637 -1464l-315 727l-315 -727z" />
<glyph unicode="X" horiz-adv-x="1368" d="M37 0l561 768l-481 655h176l391 -542l393 542h176l-481 -655l559 -768h-176l-471 649l-471 -649h-176z" />
<glyph unicode="Y" horiz-adv-x="1198" d="M27 1423h176l397 -630l397 630h177l-500 -778v-645h-148v645z" />
<glyph unicode="Z" horiz-adv-x="1222" d="M61 0l844 1284h-817v139h1073l-844 -1284h844v-139h-1100z" />
<glyph unicode="[" horiz-adv-x="634" d="M223 -377v1940h359v-140h-211v-1661h211v-139h-359z" />
<glyph unicode="\" horiz-adv-x="1060" d="M47 1423h156l811 -1423h-156z" />
<glyph unicode="]" horiz-adv-x="634" d="M53 -238h211v1661h-211v140h359v-1940h-359v139z" />
<glyph unicode="^" horiz-adv-x="1040" d="M145 743l377 721l373 -721h-164l-209 435l-217 -435h-160z" />
<glyph unicode="_" horiz-adv-x="1019" d="M10 -217h1000v-139h-1000v139z" />
<glyph unicode="`" horiz-adv-x="745" d="M170 1397q0 35 27 58.5t63 23.5q63 0 166 -115l152 -170l-39 -68l-224 111q-82 41 -113.5 76t-31.5 84z" />
<glyph unicode="a" horiz-adv-x="989" d="M115 244q0 123 75 202.5t234 98.5l104 12q136 13 170 21v51q0 47 -21 82t-53.5 53t-64 26.5t-59.5 8.5q-142 0 -240 -76l-84 92q132 111 324 111q155 0 244.5 -82.5t89.5 -214.5v-445q0 -96 14 -184h-139q-11 121 -11 123q-89 -148 -280 -148q-122 0 -213 76 q-90 78 -90 193zM250 244q0 -59 50 -100.5t118 -41.5q120 0 197.5 61t82.5 144v152q-51 -6 -274 -39q-94 -17 -134 -60t-40 -116z" />
<glyph unicode="b" horiz-adv-x="1095" d="M158 0v1454h135v-676q115 148 303 148q187 0 303 -140q113 -137 113 -335q0 -201 -113 -338q-114 -138 -303 -138q-188 0 -303 148v-123h-135zM293 451q0 -147 82 -248t203 -101t206 97q84 96 84 252q0 155 -84 251q-85 97 -206 97q-120 0 -203 -103q-82 -101 -82 -245z " />
<glyph unicode="c" horiz-adv-x="940" d="M70 444q0 229 141 355q142 127 315 127q186 0 312 -117l-82 -100q-96 90 -219 90q-141 0 -236 -105q-96 -104 -96 -250q0 -140 92 -243q94 -99 240 -99q61 0 120 27q56 26 70 43l51 53l94 -94q-141 -156 -346 -156q-183 0 -321 123q-135 126 -135 346z" />
<glyph unicode="d" horiz-adv-x="1095" d="M84 451q0 198 113 335q116 140 303 140q188 0 303 -148v676h135v-1454h-135v123q-115 -148 -303 -148q-189 0 -303 138q-113 137 -113 338zM227 451q0 -156 84 -252q85 -97 207 -97q119 0 201 101q84 104 84 248q0 141 -84 245q-83 103 -201 103q-122 0 -207 -97 q-84 -96 -84 -251z" />
<glyph unicode="e" horiz-adv-x="1003" d="M80 451q0 220 129 346q129 129 295 129q198 0 310 -124.5t112 -346.5q0 -25 -2 -35h-709q6 -142 96.5 -230t227.5 -88q194 0 262 146l114 -49q-51 -101 -149.5 -162.5t-222.5 -61.5q-182 0 -324 127q-139 130 -139 349zM223 547h563q0 104 -77 178t-199 74 q-111 0 -187.5 -67.5t-99.5 -184.5z" />
<glyph unicode="f" horiz-adv-x="677" d="M25 776l88 125h123v82q0 496 426 496v-133q-149 0 -220 -92.5t-71 -303.5v-49h291v-125h-291v-776h-135v776h-211z" />
<glyph unicode="g" horiz-adv-x="1116" d="M90 -209q0 114 129 252q-42 33 -57 79q-7 22 -7 45q0 26 8 53q16 54 64 106l33 32q-84 104 -84 224q0 146 111 245q114 99 291 99q119 0 210 -52l99 99q56 -33 108 -88l-98 -99q86 -89 86 -204q0 -155 -108.5 -249.5t-296.5 -94.5q-125 0 -209 41l-21 -21 q-48 -47 -48 -81q0 -19 14 -34q41 -42 194 -49q25 -2 82 -2q197 0 309 -47q143 -61 143 -254q0 -151 -129 -227q-130 -80 -329 -80q-106 0 -189.5 15t-135.5 41.5t-87.5 57t-52 67.5t-23 66t-6.5 60zM240 -165q-6 -25 -6 -47q0 -40 22 -71q36 -48 120 -75.5t208 -30.5 q145 0 230 51t85 129q0 106 -74 141q-65 33 -235 33q-155 0 -252 23q-78 -83 -98 -153zM317 582q0 -111 80 -164q83 -53 181 -53q100 0 180 53q82 52 82 164q0 111 -82 163q-82 54 -180 54q-96 0 -181 -54q-80 -53 -80 -163z" />
<glyph unicode="h" horiz-adv-x="1069" d="M166 0v1454h135v-666q42 62 115 100t157 38q166 0 248 -96.5t82 -317.5v-512h-137v512q0 287 -215 287q-103 0 -176.5 -78.5t-73.5 -208.5v-512h-135z" />
<glyph unicode="i" horiz-adv-x="452" d="M121 1296q0 43 31 74t75 31q43 0 74 -31t31 -74q0 -44 -31 -75t-74 -31q-44 0 -75 31t-31 75zM158 0v901h139v-901h-139z" />
<glyph unicode="j" horiz-adv-x="471" d="M35 -336q141 141 141 336v901h139v-901q0 -262 -178 -440zM139 1296q0 43 31.5 74t75.5 31q43 0 73.5 -31t30.5 -74q0 -44 -30.5 -75t-73.5 -31q-44 0 -75.5 31t-31.5 75z" />
<glyph unicode="k" horiz-adv-x="974" d="M158 0v1454h147v-1454h-147zM305 514l387 387h191l-389 -387l450 -514h-188z" />
<glyph unicode="l" horiz-adv-x="460" d="M162 0v1454h139v-1454h-139z" />
<glyph unicode="m" horiz-adv-x="1628" d="M166 0v901h135v-113q42 62 115 100t157 38q199 0 273 -176q38 78 124.5 127t186.5 49q53 0 94 -9t82.5 -35.5t69 -71t44.5 -120.5t17 -178v-512h-135v512q0 157 -48.5 222t-145.5 65q-101 0 -177 -76q-75 -75 -75 -211v-512h-138v512q0 157 -48.5 222t-145.5 65 q-103 0 -176.5 -78.5t-73.5 -208.5v-512h-135z" />
<glyph unicode="n" horiz-adv-x="1069" d="M166 0v901h135v-113q42 62 115 100t157 38q166 0 248 -96.5t82 -317.5v-512h-135v512q0 144 -57 215.5t-160 71.5t-176.5 -78.5t-73.5 -208.5v-512h-135z" />
<glyph unicode="o" horiz-adv-x="1140" d="M88 451q0 197 141 335q146 140 340 140q195 0 338 -140q144 -138 144 -335q0 -198 -144 -336q-143 -140 -338 -140q-194 0 -340 140q-141 138 -141 336zM231 451q0 -143 97 -248q94 -101 241 -101q148 0 242 101q96 104 96 248q0 143 -96 247q-94 101 -242 101 q-147 0 -241 -101q-97 -105 -97 -247z" />
<glyph unicode="p" horiz-adv-x="1095" d="M158 -492v1393h135v-123q115 148 303 148q187 0 303 -140q113 -137 113 -335q0 -201 -113 -338q-114 -138 -303 -138q-188 0 -303 148v-615h-135zM293 451q0 -147 82 -248t203 -101t206 97q84 96 84 252q0 155 -84 251q-85 97 -206 97q-120 0 -203 -103 q-82 -101 -82 -245z" />
<glyph unicode="q" horiz-adv-x="1095" d="M84 451q0 198 113 335q116 140 303 140q188 0 303 -148v123h135v-1393h-135v615q-115 -148 -303 -148q-189 0 -303 138q-113 137 -113 338zM227 451q0 -156 84 -252q85 -97 207 -97q119 0 201 101q84 104 84 248q0 141 -84 245q-83 103 -201 103q-122 0 -207 -97 q-84 -96 -84 -251z" />
<glyph unicode="r" horiz-adv-x="733" d="M158 0v901h135v-113q27 45 80 79t112 49q39 10 80 10q21 0 41 -2q62 -8 103 -41l-80 -113q-44 29 -97 29q-87 0 -163 -76t-76 -211v-512h-135z" />
<glyph unicode="s" horiz-adv-x="821" d="M66 82l63 113l86 -48q107 -45 207 -45q78 0 126 40.5t48 103.5q0 84 -137 139l-174 70q-76 32 -123 93t-47 138q0 112 82 176t180 64q149 0 305 -84l-64 -111q-121 68 -219 68q-64 0 -104.5 -34.5t-40.5 -78.5q0 -74 96 -115l168 -67q104 -42 160.5 -108t56.5 -150 q0 -122 -89.5 -196.5t-223.5 -74.5q-170 0 -356 107z" />
<glyph unicode="t" horiz-adv-x="649" d="M41 776l88 125h123v174l135 193v-367h219v-125h-219v-776h-135v776h-211z" />
<glyph unicode="u" horiz-adv-x="1044" d="M154 389v512h137v-512q0 -287 215 -287q103 0 176.5 78.5t73.5 208.5v512h135v-901h-135v113q-42 -62 -115.5 -100t-157.5 -38q-166 0 -247.5 96.5t-81.5 317.5z" />
<glyph unicode="v" horiz-adv-x="892" d="M12 901h148l286 -631l287 631h148l-435 -942z" />
<glyph unicode="w" horiz-adv-x="1318" d="M12 901h148l297 -649l141 301l-154 348h144l274 -649l297 649h148l-445 -942l-200 451l-205 -451z" />
<glyph unicode="x" horiz-adv-x="970" d="M12 0l389 477l-346 424h172l258 -321l258 321h172l-346 -424l389 -477h-176l-297 373l-297 -373h-176z" />
<glyph unicode="y" horiz-adv-x="913" d="M20 901h148l299 -672l278 672h148l-582 -1393h-147l233 560z" />
<glyph unicode="z" horiz-adv-x="813" d="M61 0l461 776h-440v125h672l-463 -776h463v-125h-693z" />
<glyph unicode="{" horiz-adv-x="667" d="M115 532v121q87 25 115 90.5t28 210.5v355q0 107 55 180q56 74 105 74h137v-140q-106 0 -127 -26q-2 -3 -6.5 -9t-5.5 -10.5t-2 -15.5q-2 -10 -2 -23v-59v-356q0 -156 -64 -246q-52 -68 -78 -86q14 -10 47 -43q26 -26 62 -109q33 -76 33 -180v-354v-23q0 -47 2.5 -62.5 t13.5 -33.5q13 -18 39.5 -22.5t87.5 -4.5v-137h-137q-50 0 -105 76q-55 73 -55 178v350q0 148 -28 212.5t-115 92.5z" />
<glyph unicode="|" horiz-adv-x="1175" d="M514 0v1556h148v-1556h-148z" />
<glyph unicode="}" horiz-adv-x="667" d="M113 -240q100 0 123 23q20 20 20 100v23v354q0 104 33 180q44 110 108 152q-26 18 -78 86q-63 89 -63 246v356v55q0 35 -12 56q-11 32 -131 32v140h137q48 0 104 -74t56 -180v-355q0 -145 28 -210.5t115 -90.5v-121q-87 -28 -115 -92.5t-28 -212.5v-350q0 -104 -56 -178 q-55 -76 -104 -76h-137v137z" />
<glyph unicode="~" horiz-adv-x="1204" d="M104 487q46 125 125 199t179 74q43 3 102.5 -26.5t108 -66t99.5 -66.5t79 -28q55 0 103 49t71 128l129 -54q-43 -123 -122.5 -196.5t-180.5 -73.5q-51 -3 -110 26.5t-102 65.5t-92.5 65.5t-84.5 26.5q-55 0 -102 -47.5t-70 -126.5z" />
<glyph unicode="&#xa1;" horiz-adv-x="696" d="M242 805q0 44 31.5 75t74.5 31q44 0 75.5 -31t31.5 -75q0 -43 -31.5 -74t-75.5 -31q-43 0 -74.5 31t-31.5 74zM274 510h148v-1032h-148v1032z" />
<glyph unicode="&#xa2;" horiz-adv-x="1269" d="M205 444q0 202 106 320q109 121 260 151v154h148v-145q145 -15 254 -115l-82 -100q-77 74 -172 86v-686q49 9 94 32q43 25 57 39l43 45l95 -94q-121 -133 -289 -151v-148h-148v152q-158 30 -262 149t-104 311zM340 444q0 -117 63.5 -205.5t167.5 -119.5v661 q-103 -32 -167 -125t-64 -211z" />
<glyph unicode="&#xa3;" horiz-adv-x="1251" d="M86 0v147h152v490h-152v149h152v220q0 184 129 313t311 129q184 0 313 -129t129 -313h-145q-3 123 -88 208q-86 86 -209 86q-120 0 -209 -86q-86 -86 -86 -208v-220h473v-149h-473v-490h780v-147h-1077z" />
<glyph unicode="&#xa4;" horiz-adv-x="1251" d="M88 279l154 151q-92 130 -92 283q0 157 94 282l-152 154l103 100l151 -151q125 90 279 90q159 0 284 -94l152 151l102 -102l-153 -152q92 -127 92 -278q0 -159 -94 -281l153 -153l-102 -105l-152 156q-130 -92 -282 -92q-151 0 -281 92l-154 -154zM293 713 q0 -147 94 -248q93 -100 238 -100q146 0 239 100q94 101 94 248t-94 248q-93 100 -239 100q-145 0 -238 -100q-94 -101 -94 -248z" />
<glyph unicode="&#xa5;" horiz-adv-x="1368" d="M49 1423h172l463 -630l463 630h172l-459 -628h301v-140h-403v-176h401v-139h-401v-340h-148v340h-401v139h401v176h-399v140h297z" />
<glyph unicode="&#xa6;" horiz-adv-x="1175" d="M514 0v623h148v-623h-148zM514 934v622h148v-622h-148z" />
<glyph unicode="&#xa7;" horiz-adv-x="1169" d="M219 549q0 106 52 188.5t145 120.5q-166 82 -166 266q0 146 104 234q110 90 254 90q80 0 154.5 -34t114.5 -93q66 -94 69 -234h-151q-12 216 -189 216q-89 0 -146 -52t-57 -139q0 -93 70 -141q10 -5 31 -18.5t43 -22.5l41 -15l92 -32q130 -48 199 -117q71 -71 71 -221 q0 -200 -198 -301q168 -85 168 -277q0 -147 -98.5 -235t-254.5 -88q-171 0 -253.5 88t-90.5 268h154q0 -213 192 -213q93 0 144 49t51 141q0 101 -70 146q-38 26 -64.5 38.5t-84.5 33.5q-175 72 -250.5 150t-75.5 204zM377 551q0 -87 61 -148t148 -61q86 0 147.5 61.5 t61.5 147.5t-61.5 147.5t-147.5 61.5q-87 0 -148 -61t-61 -148z" />
<glyph unicode="&#xa8;" horiz-adv-x="931" d="M176 1296q0 43 31.5 74t75.5 31q43 0 73.5 -31t30.5 -74q0 -44 -30.5 -75t-73.5 -31q-44 0 -75.5 31t-31.5 75zM545 1296q0 43 31 74t75 31q43 0 74 -31t31 -74q0 -44 -31 -75t-74 -31q-44 0 -75 31t-31 75z" />
<glyph unicode="&#xa9;" horiz-adv-x="1527" d="M27 713q0 305 213 518q215 215 524 215t522 -213q215 -212 215 -520q0 -310 -215 -525q-213 -213 -522 -213q-308 0 -524 213q-213 216 -213 525zM152 713q0 -261 178 -439q181 -178 434 -178q256 0 434 178q180 177 180 439q0 257 -180 434q-180 180 -434 180t-434 -180 q-178 -178 -178 -434zM313 709q0 218 138 344q139 127 309 127q206 0 317 -123l-82 -101q-77 95 -225 95q-138 0 -229 -105q-92 -103 -92 -237q0 -129 94 -230q93 -100 227 -100q86 0 154 32.5t96 73.5l92 -84q-32 -46 -129 -100q-89 -51 -223 -51q-170 0 -309 127 q-138 126 -138 332z" />
<glyph unicode="&#xaa;" horiz-adv-x="626" d="M53 688v103h522v-103h-522zM63 901l250 563l252 -563h-104l-41 94h-211l-41 -94h-105zM242 1085h145l-74 164z" />
<glyph unicode="&#xab;" horiz-adv-x="980" d="M94 455l316 401l102 -80l-258 -321l258 -314l-102 -78zM414 455l317 401l100 -80l-253 -321l253 -314l-100 -78z" />
<glyph unicode="&#xac;" horiz-adv-x="1204" d="M145 463v139h914v-477h-148v338h-766z" />
<glyph unicode="&#xad;" horiz-adv-x="864" d="M156 463v139h573v-139h-573z" />
<glyph unicode="&#xae;" horiz-adv-x="1533" d="M27 713q0 308 215 520q218 215 526 215q309 0 524 -215q215 -212 215 -520q0 -310 -215 -525q-216 -213 -524 -213q-310 0 -526 213q-215 215 -215 525zM152 713q0 -262 180 -439q181 -178 436 -178t436 178q180 177 180 439q0 257 -182 436q-180 180 -434 180 q-256 0 -436 -180q-180 -177 -180 -436zM518 274v887h281q123 0 200.5 -71t77.5 -183q0 -85 -48 -147t-124 -88l193 -398h-144l-174 373h-135v-373h-127zM645 776h154q67 0 109 35t42 94q0 60 -43 94.5t-108 34.5h-154v-258z" />
<glyph unicode="&#xaf;" horiz-adv-x="1136" d="M262 1221v127h615v-127h-615z" />
<glyph unicode="&#xb0;" horiz-adv-x="794" d="M115 1163q-3 116 82 201q84 84 202 84q117 0 201 -84t84 -201q0 -118 -84 -202t-201 -84q-118 0 -202 84q-82 82 -82 202zM221 1163q0 -82 49.5 -133t128.5 -51q80 0 129.5 51t49.5 133q0 80 -51 131.5t-130 51.5t-128.5 -51.5t-47.5 -131.5z" />
<glyph unicode="&#xb1;" horiz-adv-x="1138" d="M145 0v145h848v-145h-848zM145 545v139h351v270h145v-270h352v-139h-352v-271h-145v271h-351z" />
<glyph unicode="&#xb2;" horiz-adv-x="722" d="M123 748l338 391q26 33 26 78q0 54 -37.5 91.5t-91.5 37.5q-56 0 -92.5 -37.5t-36.5 -98.5h-102q0 104 66 171t165 67q96 0 164 -68t68 -163q0 -86 -103 -201l-149 -166h262v-102h-477z" />
<glyph unicode="&#xb3;" horiz-adv-x="716" d="M123 901h108q27 -74 123 -74q52 0 89.5 37t37.5 90q0 52 -36.5 88.5t-90.5 36.5q-59 0 -100 -65h-127l262 313h-246v96h451l-209 -247q82 -12 136 -74t54 -148q0 -94 -64.5 -158.5t-156.5 -64.5q-85 0 -145.5 45.5t-85.5 124.5z" />
<glyph unicode="&#xb4;" horiz-adv-x="745" d="M170 1194l152 170q103 115 165 115q36 0 63.5 -24t27.5 -58q0 -49 -32 -83.5t-114 -76.5l-223 -111z" />
<glyph unicode="&#xb6;" horiz-adv-x="1155" d="M129 948q0 187 113 330q115 145 290 145h494v-123h-111v-1589h-122v1589h-154v-1589h-121v821q-163 0 -278 115q-111 114 -111 301z" />
<glyph unicode="&#xb7;" horiz-adv-x="550" d="M170 483q0 42 31 72.5t75 30.5q43 0 74 -31t31 -72q0 -43 -31 -74.5t-74 -31.5q-44 0 -75 31.5t-31 74.5z" />
<glyph unicode="&#xb8;" horiz-adv-x="745" d="M217 -303h113q21 -59 84 -59q36 0 60 25.5t24 66.5q0 38 -24.5 65t-59.5 27q-36 0 -58 -25h-123l101 203h119l-52 -96q18 6 39 6q69 0 117.5 -51t48.5 -129t-55.5 -129.5t-136.5 -51.5q-73 0 -129 43t-68 105z" />
<glyph unicode="&#xb9;" horiz-adv-x="407" d="M102 1282v49l183 133v-721h-103v539h-80z" />
<glyph unicode="&#xba;" horiz-adv-x="665" d="M37 688v103h594v-103h-594zM41 1165q0 116 86 199q90 84 209 84q125 0 207 -82q86 -83 86 -201q0 -121 -86 -204q-84 -84 -207 -84q-119 0 -209 84q-86 86 -86 204zM137 1165q0 -86 56.5 -142t142.5 -56t141 55t55 143q0 84 -55.5 138.5t-140.5 54.5q-87 0 -143 -54.5 t-56 -138.5z" />
<glyph unicode="&#xbb;" horiz-adv-x="980" d="M150 141l253 314l-253 321l100 80l317 -401l-317 -392zM469 141l256 314l-256 321l100 80l318 -401l-318 -392z" />
<glyph unicode="&#xbc;" horiz-adv-x="1517" d="M123 1282v49l182 133v-721h-102v539h-80zM233 0l857 1423h141l-856 -1423h-142zM868 162l465 559v-457h82v-102h-82v-162h-100v162h-365zM1073 264h160v189z" />
<glyph unicode="&#xbd;" horiz-adv-x="1671" d="M147 1282v49l183 133v-721h-103v539h-80zM248 0l856 1423h141l-856 -1423h-141zM1071 0l338 391q27 35 27 78q0 54 -37.5 91.5t-91.5 37.5q-56 0 -92.5 -37t-36.5 -98h-103q0 103 66.5 170t165.5 67q96 0 163 -67q68 -68 68 -164q0 -87 -102 -201l-150 -166h262v-102 h-477z" />
<glyph unicode="&#xbe;" horiz-adv-x="1619" d="M123 901h108q27 -74 123 -74q52 0 89.5 37t37.5 90q0 52 -36.5 88.5t-90.5 36.5q-59 0 -100 -65h-127l262 313h-246v96h451l-209 -247q82 -12 136 -74t54 -148q0 -94 -64.5 -158.5t-156.5 -64.5q-85 0 -145.5 45.5t-85.5 124.5zM330 0l856 1423h141l-856 -1423h-141z M971 162l465 559v-457h82v-102h-82v-162h-101v162h-364zM1176 264h159v189z" />
<glyph unicode="&#xbf;" horiz-adv-x="970" d="M137 -178q0 130 82 231l215 264l4 154h144l4 -207l-250 -307q-47 -62 -47 -135q0 -91 63.5 -155t155.5 -64t154.5 66.5t62.5 168.5v58h149v-58q0 -170 -106 -276q-109 -109 -260 -109q-155 0 -264 109q-107 107 -107 260zM403 817q0 44 32 76.5t75 32.5q44 0 74 -32 t30 -77q0 -43 -30.5 -72.5t-73.5 -29.5t-75 30.5t-32 71.5z" />
<glyph unicode="&#xc0;" d="M10 0l635 1464l635 -1464h-164l-162 387h-618l-162 -387h-164zM379 1782q0 35 27 58.5t63 23.5q66 0 172 -115l145 -160l-38 -67l-213 100q-86 42 -121 77.5t-35 82.5zM395 526h500l-250 596z" />
<glyph unicode="&#xc1;" d="M10 0l635 1464l635 -1464h-164l-162 387h-618l-162 -387h-164zM395 526h500l-250 596zM504 1589l145 160q106 115 172 115q36 0 63 -23.5t27 -58.5q0 -47 -35 -83t-120 -77l-213 -100z" />
<glyph unicode="&#xc2;" d="M10 0l635 1464l635 -1464h-164l-162 387h-618l-162 -387h-164zM379 1581l266 283l266 -283l-96 -59l-170 192l-170 -192zM395 526h500l-250 596z" />
<glyph unicode="&#xc3;" d="M10 0l635 1464l635 -1464h-164l-162 387h-618l-162 -387h-164zM315 1657q82 149 191 149q58 0 149 -45q98 -43 127 -43q55 0 105 92l88 -73q-27 -65 -82.5 -108.5t-116.5 -43.5q-46 0 -139 43t-137 43q-55 0 -92 -88zM395 526h500l-250 596z" />
<glyph unicode="&#xc4;" d="M10 0l635 1464l635 -1464h-164l-162 387h-618l-162 -387h-164zM356 1694q0 43 31.5 73.5t75.5 30.5q43 0 73.5 -30.5t30.5 -73.5q0 -44 -30.5 -75.5t-73.5 -31.5q-44 0 -75.5 31.5t-31.5 75.5zM395 526h500l-250 596zM725 1694q0 43 31 73.5t75 30.5q43 0 74 -30.5 t31 -73.5q0 -44 -31 -75.5t-74 -31.5q-44 0 -75 31.5t-31 75.5z" />
<glyph unicode="&#xc5;" d="M10 0l617 1423q-78 7 -132.5 67t-54.5 138q0 85 59.5 145t145.5 60q85 0 145 -60t60 -145q0 -78 -54 -138t-132 -67l616 -1423h-164l-162 387h-618l-162 -387h-164zM395 526h500l-250 596zM537 1628q0 -45 30.5 -76.5t77.5 -31.5t80 32t33 76q0 47 -33 80t-80 33 t-77.5 -32.5t-30.5 -80.5z" />
<glyph unicode="&#xc6;" horiz-adv-x="1865" d="M10 0l604 1423h846v-147h-725l209 -490h612v-149h-548l206 -490h510v-147h-614l-270 637h-398l-264 -637h-168zM504 786h276l-135 353z" />
<glyph unicode="&#xc7;" horiz-adv-x="1478" d="M78 713q0 297 217 514q218 221 520 221q168 0 304 -66t224 -184l-120 -96q-183 198 -408 198q-244 0 -412 -174q-170 -173 -170 -413q0 -242 170 -418q169 -172 412 -172q239 0 426 211l133 -105q-225 -237 -512 -252l-39 -73q18 6 39 6q69 0 117.5 -51t48.5 -129 t-55.5 -129.5t-136.5 -51.5q-73 0 -129 43t-68 105h113q21 -59 84 -59q36 0 60 25.5t24 66.5q0 38 -24.5 65t-59.5 27q-36 0 -58 -25h-123l90 183q-276 27 -471 237q-196 211 -196 496z" />
<glyph unicode="&#xc8;" horiz-adv-x="1193" d="M166 0v1423h881v-139h-734v-469h598v-139h-598v-537h740v-139h-887zM338 1782q0 35 27 58.5t63 23.5q66 0 172 -115l145 -160l-38 -67l-213 100q-86 42 -121 77.5t-35 82.5z" />
<glyph unicode="&#xc9;" horiz-adv-x="1193" d="M166 0v1423h881v-139h-734v-469h598v-139h-598v-537h740v-139h-887zM463 1589l145 160q106 115 172 115q36 0 63 -23.5t27 -58.5q0 -47 -35 -83t-120 -77l-213 -100z" />
<glyph unicode="&#xca;" horiz-adv-x="1193" d="M166 0v1423h881v-139h-734v-469h598v-139h-598v-537h740v-139h-887zM338 1581l266 283l266 -283l-96 -59l-170 192l-170 -192z" />
<glyph unicode="&#xcb;" horiz-adv-x="1193" d="M166 0v1423h881v-139h-734v-469h598v-139h-598v-537h740v-139h-887zM315 1694q0 43 31.5 73.5t75.5 30.5q43 0 73.5 -30.5t30.5 -73.5q0 -44 -30.5 -75.5t-73.5 -31.5q-44 0 -75.5 31.5t-31.5 75.5zM684 1694q0 43 31.5 73.5t75.5 30.5q43 0 73.5 -30.5t30.5 -73.5 q0 -44 -30.5 -75.5t-73.5 -31.5q-44 0 -75.5 31.5t-31.5 75.5z" />
<glyph unicode="&#xcc;" horiz-adv-x="489" d="M-20 1782q0 35 27 58.5t63 23.5q66 0 172 -115l145 -160l-39 -67l-213 100q-85 41 -120 77t-35 83zM170 0v1423h152v-1423h-152z" />
<glyph unicode="&#xcd;" horiz-adv-x="489" d="M104 1589l146 160q106 115 172 115q36 0 63 -23.5t27 -58.5q0 -47 -35 -82.5t-121 -77.5l-213 -100zM170 0v1423h152v-1423h-152z" />
<glyph unicode="&#xce;" horiz-adv-x="489" d="M-20 1581l266 283l266 -283l-96 -59l-170 192l-170 -192zM170 0v1423h152v-1423h-152z" />
<glyph unicode="&#xcf;" horiz-adv-x="489" d="M-43 1694q0 43 31 73.5t75 30.5q43 0 74 -30.5t31 -73.5q0 -44 -31 -75.5t-74 -31.5q-44 0 -75 31.5t-31 75.5zM170 0v1423h152v-1423h-152zM326 1694q0 43 31 73.5t75 30.5q43 0 74 -30.5t31 -73.5q0 -44 -31 -75.5t-74 -31.5q-44 0 -75 31.5t-31 75.5z" />
<glyph unicode="&#xd0;" horiz-adv-x="1415" d="M25 651v140h145v632h440q286 0 498 -209q213 -207 213 -501q0 -289 -207 -502q-205 -211 -504 -211h-440v651h-145zM317 139h293q222 0 389 170q166 169 166 404q0 229 -161 399q-163 172 -394 172h-293v-493h369v-140h-369v-512z" />
<glyph unicode="&#xd1;" horiz-adv-x="1511" d="M176 0v1464l1012 -1128v1087h147v-1464l-1011 1128v-1087h-148zM426 1657q82 149 190 149q59 0 150 -45q98 -43 127 -43q54 0 104 92l88 -73q-27 -65 -82 -108.5t-116 -43.5q-46 0 -139 43t-138 43q-55 0 -92 -88z" />
<glyph unicode="&#xd2;" horiz-adv-x="1648" d="M88 713q0 297 217 514q218 221 520 221q297 0 514 -217q222 -216 222 -518q0 -296 -215 -514q-212 -215 -521 -224q-295 0 -516 218t-221 520zM244 713q0 -242 170 -418q169 -172 411 -172q241 0 410 172q170 176 170 418q0 240 -170 413q-168 174 -410 174 q-243 0 -411 -174q-170 -173 -170 -413zM559 1782q0 35 27 58.5t63 23.5q66 0 172 -115l146 -160l-39 -67l-213 100q-86 42 -121 77.5t-35 82.5z" />
<glyph unicode="&#xd3;" horiz-adv-x="1648" d="M88 713q0 297 217 514q218 221 520 221q297 0 514 -217q222 -216 222 -518q0 -296 -215 -514q-212 -215 -521 -224q-295 0 -516 218t-221 520zM244 713q0 -242 170 -418q169 -172 411 -172q241 0 410 172q170 176 170 418q0 240 -170 413q-168 174 -410 174 q-243 0 -411 -174q-170 -173 -170 -413zM684 1589l145 160q106 115 172 115q36 0 63.5 -24t27.5 -58q0 -47 -35 -82.5t-121 -77.5l-213 -100z" />
<glyph unicode="&#xd4;" horiz-adv-x="1648" d="M88 713q0 297 217 514q218 221 520 221q297 0 514 -217q222 -216 222 -518q0 -296 -215 -514q-212 -215 -521 -224q-295 0 -516 218t-221 520zM244 713q0 -242 170 -418q169 -172 411 -172q241 0 410 172q170 176 170 418q0 240 -170 413q-168 174 -410 174 q-243 0 -411 -174q-170 -173 -170 -413zM559 1581l266 283l267 -283l-97 -59l-170 192l-170 -192z" />
<glyph unicode="&#xd5;" horiz-adv-x="1648" d="M88 713q0 297 217 514q218 221 520 221q297 0 514 -217q222 -216 222 -518q0 -296 -215 -514q-212 -215 -521 -224q-295 0 -516 218t-221 520zM244 713q0 -242 170 -418q169 -172 411 -172q241 0 410 172q170 176 170 418q0 240 -170 413q-168 174 -410 174 q-243 0 -411 -174q-170 -173 -170 -413zM496 1657q82 149 190 149q59 0 150 -45q98 -43 127 -43q54 0 104 92l88 -73q-27 -65 -82.5 -108.5t-116.5 -43.5q-46 0 -139 43t-137 43q-55 0 -92 -88z" />
<glyph unicode="&#xd6;" horiz-adv-x="1648" d="M88 713q0 297 217 514q218 221 520 221q297 0 514 -217q222 -216 222 -518q0 -296 -215 -514q-212 -215 -521 -224q-295 0 -516 218t-221 520zM244 713q0 -242 170 -418q169 -172 411 -172q241 0 410 172q170 176 170 418q0 240 -170 413q-168 174 -410 174 q-243 0 -411 -174q-170 -173 -170 -413zM537 1694q0 43 31 73.5t75 30.5q43 0 74 -30.5t31 -73.5q0 -44 -31 -75.5t-74 -31.5q-44 0 -75 31.5t-31 75.5zM905 1694q0 43 31.5 73.5t75.5 30.5q43 0 73.5 -30.5t30.5 -73.5q0 -44 -30.5 -75.5t-73.5 -31.5q-44 0 -75.5 31.5 t-31.5 75.5z" />
<glyph unicode="&#xd7;" horiz-adv-x="1216" d="M145 174l365 358l-365 361l105 102l358 -366l359 366l104 -102l-366 -361l366 -358l-104 -104l-357 364l-360 -364z" />
<glyph unicode="&#xd8;" horiz-adv-x="1652" d="M88 84l168 166q-168 204 -168 463q0 297 217 514q218 221 520 221q259 0 463 -168l170 168l107 -109l-168 -168q164 -206 164 -458q0 -296 -215 -514q-212 -215 -521 -224q-259 0 -463 168l-167 -168zM244 713q0 -204 118 -357l822 818q-156 126 -359 126 q-243 0 -411 -174q-170 -173 -170 -413zM467 248q155 -125 358 -125q241 0 410 172q170 176 170 418q0 196 -117 352z" />
<glyph unicode="&#xd9;" horiz-adv-x="1423" d="M162 526v897h147v-897q0 -169 117 -286q120 -117 287 -117q170 0 286 119q117 120 117 284v897h148v-897q0 -227 -162 -389t-389 -162q-236 0 -394 162q-157 165 -157 389zM446 1782q0 34 27.5 58t63.5 24q66 0 172 -115l145 -160l-39 -67l-213 100q-86 42 -121 77.5 t-35 82.5z" />
<glyph unicode="&#xda;" horiz-adv-x="1423" d="M162 526v897h147v-897q0 -169 117 -286q120 -117 287 -117q170 0 286 119q117 120 117 284v897h148v-897q0 -227 -162 -389t-389 -162q-236 0 -394 162q-157 165 -157 389zM571 1589l146 160q106 115 172 115q36 0 63 -23.5t27 -58.5q0 -47 -35 -82.5t-121 -77.5 l-213 -100z" />
<glyph unicode="&#xdb;" horiz-adv-x="1423" d="M162 526v897h147v-897q0 -169 117 -286q120 -117 287 -117q170 0 286 119q117 120 117 284v897h148v-897q0 -227 -162 -389t-389 -162q-236 0 -394 162q-157 165 -157 389zM446 1581l267 283l266 -283l-96 -59l-170 192l-170 -192z" />
<glyph unicode="&#xdc;" horiz-adv-x="1423" d="M162 526v897h147v-897q0 -169 117 -286q120 -117 287 -117q170 0 286 119q117 120 117 284v897h148v-897q0 -227 -162 -389t-389 -162q-236 0 -394 162q-157 165 -157 389zM424 1694q0 43 31 73.5t75 30.5q43 0 74 -30.5t31 -73.5q0 -44 -31 -75.5t-74 -31.5 q-44 0 -75 31.5t-31 75.5zM793 1694q0 43 31 73.5t75 30.5q43 0 74 -30.5t31 -73.5q0 -44 -31 -75.5t-74 -31.5q-44 0 -75 31.5t-31 75.5z" />
<glyph unicode="&#xdd;" horiz-adv-x="1198" d="M27 1423h176l397 -630l397 630h177l-500 -778v-645h-148v645zM459 1589l145 160q106 115 172 115q36 0 63 -23.5t27 -58.5q0 -47 -35 -83t-120 -77l-213 -100z" />
<glyph unicode="&#xde;" horiz-adv-x="1120" d="M166 0v1423h147v-293h291q183 0 311 -122q132 -123 132 -295q0 -177 -132 -297q-133 -121 -311 -121h-291v-295h-147zM313 434h291q118 0 201 80q86 83 86 199q0 121 -86 198q-83 80 -201 80h-291v-557z" />
<glyph unicode="&#xdf;" horiz-adv-x="1126" d="M158 0v1055q0 424 372 424q156 0 263 -101q108 -102 108 -254q0 -88 -45 -165t-119 -113q144 -48 224.5 -149t80.5 -240q0 -213 -157 -334q-156 -120 -383 -123v139q178 11 281.5 92.5t103.5 231.5q0 129 -74 196q-33 33 -86 50q-91 34 -225 45v139q105 -2 174 65t69 172 q0 92 -61.5 150.5t-155.5 58.5q-114 0 -172 -65q-22 -29 -34 -80q-17 -72 -17 -209v-985h-147z" />
<glyph unicode="&#xe0;" horiz-adv-x="989" d="M115 244q0 123 75 202.5t234 98.5l104 12q136 13 170 21v51q0 47 -21 82t-53.5 53t-64 26.5t-59.5 8.5q-142 0 -240 -76l-84 92q132 111 324 111q155 0 244.5 -82.5t89.5 -214.5v-445q0 -96 14 -184h-139q-11 121 -11 123q-89 -148 -280 -148q-122 0 -213 76 q-90 78 -90 193zM233 1397q0 34 27.5 58t63.5 24q62 0 165 -115l152 -170l-39 -68l-223 111q-82 42 -114 76.5t-32 83.5zM250 244q0 -59 50 -100.5t118 -41.5q120 0 197.5 61t82.5 144v152q-51 -6 -274 -39q-94 -17 -134 -60t-40 -116z" />
<glyph unicode="&#xe1;" horiz-adv-x="989" d="M115 244q0 123 75 202.5t234 98.5l104 12q136 13 170 21v51q0 47 -21 82t-53.5 53t-64 26.5t-59.5 8.5q-142 0 -240 -76l-84 92q132 111 324 111q155 0 244.5 -82.5t89.5 -214.5v-445q0 -96 14 -184h-139q-11 121 -11 123q-89 -148 -280 -148q-122 0 -213 76 q-90 78 -90 193zM250 244q0 -59 50 -100.5t118 -41.5q120 0 197.5 61t82.5 144v152q-51 -6 -274 -39q-94 -17 -134 -60t-40 -116zM358 1194l152 170q103 115 166 115q36 0 63 -23.5t27 -58.5q0 -49 -31.5 -84t-113.5 -76l-224 -111z" />
<glyph unicode="&#xe2;" horiz-adv-x="989" d="M115 244q0 123 75 202.5t234 98.5l104 12q136 13 170 21v51q0 47 -21 82t-53.5 53t-64 26.5t-59.5 8.5q-142 0 -240 -76l-84 92q132 111 324 111q155 0 244.5 -82.5t89.5 -214.5v-445q0 -96 14 -184h-139q-11 121 -11 123q-89 -148 -280 -148q-122 0 -213 76 q-90 78 -90 193zM229 1200l271 279l270 -279l-100 -63l-170 188l-170 -188zM250 244q0 -59 50 -100.5t118 -41.5q120 0 197.5 61t82.5 144v152q-51 -6 -274 -39q-94 -17 -134 -60t-40 -116z" />
<glyph unicode="&#xe3;" horiz-adv-x="989" d="M115 244q0 123 75 202.5t234 98.5l104 12q136 13 170 21v51q0 47 -21 82t-53.5 53t-64 26.5t-59.5 8.5q-142 0 -240 -76l-84 92q132 111 324 111q155 0 244.5 -82.5t89.5 -214.5v-445q0 -96 14 -184h-139q-11 121 -11 123q-89 -148 -280 -148q-122 0 -213 76 q-90 78 -90 193zM170 1255q82 150 190 150q59 0 150 -45q98 -43 127 -43q54 0 104 92l88 -74q-27 -65 -82 -108t-116 -43q-46 0 -139 43t-138 43q-55 0 -92 -88zM250 244q0 -59 50 -100.5t118 -41.5q120 0 197.5 61t82.5 144v152q-51 -6 -274 -39q-94 -17 -134 -60t-40 -116 z" />
<glyph unicode="&#xe4;" horiz-adv-x="989" d="M115 244q0 123 75 202.5t234 98.5l104 12q136 13 170 21v51q0 47 -21 82t-53.5 53t-64 26.5t-59.5 8.5q-142 0 -240 -76l-84 92q132 111 324 111q155 0 244.5 -82.5t89.5 -214.5v-445q0 -96 14 -184h-139q-11 121 -11 123q-89 -148 -280 -148q-122 0 -213 76 q-90 78 -90 193zM211 1296q0 43 31 74t75 31q43 0 74 -31t31 -74q0 -44 -31 -75t-74 -31q-44 0 -75 31t-31 75zM250 244q0 -59 50 -100.5t118 -41.5q120 0 197.5 61t82.5 144v152q-51 -6 -274 -39q-94 -17 -134 -60t-40 -116zM580 1296q0 43 31 74t75 31q43 0 74 -31t31 -74 q0 -44 -31 -75t-74 -31q-44 0 -75 31t-31 75z" />
<glyph unicode="&#xe5;" horiz-adv-x="989" d="M115 244q0 123 75 202.5t234 98.5l104 12q136 13 170 21v51q0 47 -21 82t-53.5 53t-64 26.5t-59.5 8.5q-142 0 -240 -76l-84 92q132 111 324 111q155 0 244.5 -82.5t89.5 -214.5v-445q0 -96 14 -184h-139q-11 121 -11 123q-89 -148 -280 -148q-122 0 -213 76 q-90 78 -90 193zM250 244q0 -59 50 -100.5t118 -41.5q120 0 197.5 61t82.5 144v152q-51 -6 -274 -39q-94 -17 -134 -60t-40 -116zM295 1294q0 85 59.5 145t145.5 60q85 0 145 -60t60 -145t-59.5 -144.5t-145.5 -59.5t-145.5 59.5t-59.5 144.5zM391 1294q-3 -34 17 -61 t49.5 -38.5t64 -7t58.5 29.5q25 25 30 58.5t-7 62t-40 49t-63 20.5q-47 0 -78 -32.5t-31 -80.5z" />
<glyph unicode="&#xe6;" horiz-adv-x="1617" d="M115 246q0 125 79.5 201.5t229.5 80.5l285 9v92q0 47 -21.5 82t-54 53t-64 26.5t-59.5 8.5q-155 0 -254 -105l-84 92q122 140 338 140q220 0 303 -160q124 160 322 160q202 0 311 -135t92 -361l-694 -18q6 -140 96.5 -226t228.5 -86q166 0 252 148l115 -49 q-47 -100 -145 -162t-238 -62q-100 0 -198 51t-160 140q-108 -191 -377 -191q-120 0 -213 78q-90 78 -90 193zM250 246q0 -56 52 -100t116 -44q131 0 208.5 59.5t82.5 145.5v103l-285 -9q-174 -9 -174 -155zM852 541l563 16q0 101 -80 172q-76 70 -194 70 q-115 0 -193.5 -70.5t-95.5 -187.5z" />
<glyph unicode="&#xe7;" horiz-adv-x="940" d="M70 444q0 229 141 355q142 127 315 127q186 0 312 -117l-82 -100q-96 90 -219 90q-141 0 -236 -105q-96 -104 -96 -250q0 -140 92 -243q94 -99 240 -99q61 0 120 27q56 26 70 43l51 53l94 -94q-124 -139 -299 -154l-38 -73q18 6 38 6q69 0 117.5 -51t48.5 -129 t-55.5 -129.5t-136.5 -51.5q-73 0 -129 43t-68 105h113q21 -59 84 -59q36 0 60 25.5t24 66.5q0 38 -24.5 65t-59.5 27q-36 0 -58 -25h-122l90 183q-161 21 -277 143q-110 122 -110 321z" />
<glyph unicode="&#xe8;" horiz-adv-x="1003" d="M80 451q0 220 129 346q129 129 295 129q198 0 310 -124.5t112 -346.5q0 -25 -2 -35h-709q6 -142 96.5 -230t227.5 -88q194 0 262 146l114 -49q-51 -101 -149.5 -162.5t-222.5 -61.5q-182 0 -324 127q-139 130 -139 349zM223 547h563q0 104 -77 178t-199 74 q-111 0 -187.5 -67.5t-99.5 -184.5zM238 1397q0 35 27 58.5t63 23.5q63 0 166 -115l151 -170l-39 -68l-223 111q-82 41 -113.5 76t-31.5 84z" />
<glyph unicode="&#xe9;" horiz-adv-x="1003" d="M80 451q0 220 129 346q129 129 295 129q198 0 310 -124.5t112 -346.5q0 -25 -2 -35h-709q6 -142 96.5 -230t227.5 -88q194 0 262 146l114 -49q-51 -101 -149.5 -162.5t-222.5 -61.5q-182 0 -324 127q-139 130 -139 349zM223 547h563q0 104 -77 178t-199 74 q-111 0 -187.5 -67.5t-99.5 -184.5zM362 1194l152 170q103 115 166 115q36 0 63 -23.5t27 -58.5q0 -49 -31.5 -84t-113.5 -76l-224 -111z" />
<glyph unicode="&#xea;" horiz-adv-x="1003" d="M80 451q0 220 129 346q129 129 295 129q198 0 310 -124.5t112 -346.5q0 -25 -2 -35h-709q6 -142 96.5 -230t227.5 -88q194 0 262 146l114 -49q-51 -101 -149.5 -162.5t-222.5 -61.5q-182 0 -324 127q-139 130 -139 349zM223 547h563q0 104 -77 178t-199 74 q-111 0 -187.5 -67.5t-99.5 -184.5zM233 1200l271 279l270 -279l-100 -63l-170 188l-170 -188z" />
<glyph unicode="&#xeb;" horiz-adv-x="1003" d="M80 451q0 220 129 346q129 129 295 129q198 0 310 -124.5t112 -346.5q0 -25 -2 -35h-709q6 -142 96.5 -230t227.5 -88q194 0 262 146l114 -49q-51 -101 -149.5 -162.5t-222.5 -61.5q-182 0 -324 127q-139 130 -139 349zM215 1296q0 43 31.5 74t75.5 31q43 0 73.5 -31 t30.5 -74q0 -44 -30.5 -75t-73.5 -31q-44 0 -75.5 31t-31.5 75zM223 547h563q0 104 -77 178t-199 74q-111 0 -187.5 -67.5t-99.5 -184.5zM584 1296q0 43 31 74t75 31q43 0 74 -31t31 -74q0 -44 -31 -75t-74 -31q-44 0 -75 31t-31 75z" />
<glyph unicode="&#xec;" horiz-adv-x="452" d="M-39 1397q0 35 27 58.5t63 23.5q63 0 166 -115l152 -170l-39 -68l-224 111q-82 41 -113.5 76t-31.5 84zM158 0v901h139v-901h-139z" />
<glyph unicode="&#xed;" horiz-adv-x="452" d="M86 1194l152 170q103 115 165 115q36 0 63.5 -24t27.5 -58q0 -49 -32 -83.5t-114 -76.5l-223 -111zM158 0v901h139v-901h-139z" />
<glyph unicode="&#xee;" horiz-adv-x="452" d="M-43 1200l270 279l271 -279l-101 -63l-170 188l-170 -188zM158 0v901h139v-901h-139z" />
<glyph unicode="&#xef;" horiz-adv-x="452" d="M-61 1296q0 43 31 74t75 31q43 0 74 -31t31 -74q0 -44 -31 -75t-74 -31q-44 0 -75 31t-31 75zM158 0v901h139v-901h-139zM307 1296q0 43 31.5 74t75.5 31q43 0 73.5 -31t30.5 -74q0 -44 -30.5 -75t-73.5 -31q-44 0 -75.5 31t-31.5 75z" />
<glyph unicode="&#xf0;" horiz-adv-x="1126" d="M80 451q0 196 139 335q140 140 336 140q191 0 293 -117q-24 141 -94 340l-258 -41l-43 121l254 39q-53 132 -113 225h156q43 -72 94 -203l162 25l41 -119l-158 -25q137 -411 143 -720q0 -198 -141 -336q-140 -140 -336 -140t-336 140q-139 139 -139 336zM223 451 q0 -147 94 -248t238 -101q146 0 240 101t94 248q-6 156 -101 251q-97 97 -233 97q-144 0 -238 -101t-94 -247z" />
<glyph unicode="&#xf1;" horiz-adv-x="1069" d="M166 0v901h135v-113q42 62 115 100t157 38q166 0 248 -96.5t82 -317.5v-512h-135v512q0 144 -57 215.5t-160 71.5t-176.5 -78.5t-73.5 -208.5v-512h-135zM205 1255q83 150 190 150q59 0 150 -45q98 -43 127 -43q54 0 104 92l88 -74q-27 -65 -82 -108t-116 -43 q-47 0 -140 43t-137 43q-55 0 -92 -88z" />
<glyph unicode="&#xf2;" horiz-adv-x="1140" d="M88 451q0 197 141 335q146 140 340 140q195 0 338 -140q144 -138 144 -335q0 -198 -144 -336q-143 -140 -338 -140q-194 0 -340 140q-141 138 -141 336zM231 451q0 -143 97 -248q94 -101 241 -101q148 0 242 101q96 104 96 248q0 143 -96 247q-94 101 -242 101 q-147 0 -241 -101q-97 -105 -97 -247zM303 1397q0 35 27 58.5t63 23.5q63 0 166 -115l152 -170l-39 -68l-223 111q-82 42 -114 76.5t-32 83.5z" />
<glyph unicode="&#xf3;" horiz-adv-x="1140" d="M88 451q0 197 141 335q146 140 340 140q195 0 338 -140q144 -138 144 -335q0 -198 -144 -336q-143 -140 -338 -140q-194 0 -340 140q-141 138 -141 336zM231 451q0 -143 97 -248q94 -101 241 -101q148 0 242 101q96 104 96 248q0 143 -96 247q-94 101 -242 101 q-147 0 -241 -101q-97 -105 -97 -247zM428 1194l152 170q103 115 165 115q36 0 63.5 -24t27.5 -58q0 -49 -32 -83.5t-114 -76.5l-223 -111z" />
<glyph unicode="&#xf4;" horiz-adv-x="1140" d="M88 451q0 197 141 335q146 140 340 140q195 0 338 -140q144 -138 144 -335q0 -198 -144 -336q-143 -140 -338 -140q-194 0 -340 140q-141 138 -141 336zM231 451q0 -143 97 -248q94 -101 241 -101q148 0 242 101q96 104 96 248q0 143 -96 247q-94 101 -242 101 q-147 0 -241 -101q-97 -105 -97 -247zM299 1200l270 279l271 -279l-101 -63l-170 188l-170 -188z" />
<glyph unicode="&#xf5;" horiz-adv-x="1140" d="M88 451q0 197 141 335q146 140 340 140q195 0 338 -140q144 -138 144 -335q0 -198 -144 -336q-143 -140 -338 -140q-194 0 -340 140q-141 138 -141 336zM231 451q0 -143 97 -248q94 -101 241 -101q148 0 242 101q96 104 96 248q0 143 -96 247q-94 101 -242 101 q-147 0 -241 -101q-97 -105 -97 -247zM240 1255q82 150 190 150q59 0 150 -45q98 -43 127 -43q54 0 104 92l88 -74q-27 -65 -82 -108t-117 -43q-46 0 -139 43t-137 43q-55 0 -92 -88z" />
<glyph unicode="&#xf6;" horiz-adv-x="1140" d="M88 451q0 197 141 335q146 140 340 140q195 0 338 -140q144 -138 144 -335q0 -198 -144 -336q-143 -140 -338 -140q-194 0 -340 140q-141 138 -141 336zM231 451q0 -143 97 -248q94 -101 241 -101q148 0 242 101q96 104 96 248q0 143 -96 247q-94 101 -242 101 q-147 0 -241 -101q-97 -105 -97 -247zM281 1296q0 43 31 74t75 31q43 0 74 -31t31 -74q0 -44 -31 -75t-74 -31q-44 0 -75 31t-31 75zM649 1296q0 43 31.5 74t75.5 31q43 0 73.5 -31t30.5 -74q0 -44 -30.5 -75t-73.5 -31q-44 0 -75.5 31t-31.5 75z" />
<glyph unicode="&#xf7;" horiz-adv-x="1163" d="M145 463v139h873v-139h-873zM475 84q0 43 32.5 74.5t76.5 31.5t75 -31.5t31 -74.5q0 -45 -31 -77t-75 -32t-76.5 32.5t-32.5 76.5zM475 983q0 41 33 74t76 33t74.5 -32t31.5 -75q0 -45 -31 -77t-75 -32t-76.5 32.5t-32.5 76.5z" />
<glyph unicode="&#xf8;" horiz-adv-x="1112" d="M80 78l92 92q-92 127 -92 281q0 196 139 335q140 140 336 140q159 0 283 -95l90 91l104 -103l-90 -90q90 -128 90 -278q0 -198 -141 -336q-140 -140 -336 -140q-153 0 -281 93l-94 -93zM223 451q0 -102 47 -185l475 473q-85 60 -190 60q-144 0 -238 -101t-94 -247z M367 160q79 -58 188 -58q146 0 240 101t94 248q0 102 -45 182z" />
<glyph unicode="&#xf9;" horiz-adv-x="1044" d="M154 389v512h137v-512q0 -287 215 -287q103 0 176.5 78.5t73.5 208.5v512h135v-901h-135v113q-42 -62 -115.5 -100t-157.5 -38q-166 0 -247.5 96.5t-81.5 317.5zM256 1397q0 35 27 58.5t63 23.5q63 0 166 -115l152 -170l-39 -68l-224 111q-82 41 -113.5 76t-31.5 84z" />
<glyph unicode="&#xfa;" horiz-adv-x="1044" d="M154 389v512h137v-512q0 -287 215 -287q103 0 176.5 78.5t73.5 208.5v512h135v-901h-135v113q-42 -62 -115.5 -100t-157.5 -38q-166 0 -247.5 96.5t-81.5 317.5zM381 1194l151 170q103 115 166 115q36 0 63 -23.5t27 -58.5q0 -49 -31.5 -84t-113.5 -76l-223 -111z" />
<glyph unicode="&#xfb;" horiz-adv-x="1044" d="M154 389v512h137v-512q0 -287 215 -287q103 0 176.5 78.5t73.5 208.5v512h135v-901h-135v113q-42 -62 -115.5 -100t-157.5 -38q-166 0 -247.5 96.5t-81.5 317.5zM252 1200l270 279l271 -279l-101 -63l-170 188l-170 -188z" />
<glyph unicode="&#xfc;" horiz-adv-x="1044" d="M154 389v512h137v-512q0 -287 215 -287q103 0 176.5 78.5t73.5 208.5v512h135v-901h-135v113q-42 -62 -115.5 -100t-157.5 -38q-166 0 -247.5 96.5t-81.5 317.5zM233 1296q0 43 31.5 74t75.5 31q43 0 73.5 -31t30.5 -74q0 -44 -30.5 -75t-73.5 -31q-44 0 -75.5 31 t-31.5 75zM602 1296q0 43 31.5 74t75.5 31q43 0 73.5 -31t30.5 -74q0 -44 -30.5 -75t-73.5 -31q-44 0 -75.5 31t-31.5 75z" />
<glyph unicode="&#xfd;" horiz-adv-x="913" d="M20 901h148l299 -672l278 672h148l-582 -1393h-147l233 560zM315 1194l152 170q103 115 166 115q36 0 63 -23.5t27 -58.5q0 -49 -31.5 -84t-113.5 -76l-224 -111z" />
<glyph unicode="&#xfe;" horiz-adv-x="1112" d="M174 -492v1946h135v-676q115 148 303 148q187 0 303 -140q113 -137 113 -335q0 -201 -113 -338q-114 -138 -303 -138q-188 0 -303 148v-615h-135zM309 451q0 -147 82 -248t203 -101q122 0 207 97q84 96 84 252q0 155 -84 251q-85 97 -207 97q-120 0 -203 -103 q-82 -101 -82 -245z" />
<glyph unicode="&#xff;" horiz-adv-x="913" d="M20 901h148l299 -672l278 672h148l-582 -1393h-147l233 560zM168 1296q0 43 31 74t75 31q43 0 74 -31t31 -74q0 -44 -31 -75t-74 -31q-44 0 -75 31t-31 75zM537 1296q0 43 31 74t75 31q43 0 74 -31t31 -74q0 -44 -31 -75t-74 -31q-44 0 -75 31t-31 75z" />
<glyph unicode="&#x152;" horiz-adv-x="2439" d="M88 713q0 297 217 514q218 221 520 221q175 0 333 -82.5t263 -226.5v284h881v-139h-733v-469h598v-139h-598v-537h739v-139h-887v287q-104 -141 -261 -224.5t-335 -87.5q-295 0 -516 218t-221 520zM244 713q0 -242 170 -418q169 -172 411 -172q241 0 410 172 q170 176 170 418q0 240 -170 413q-168 174 -410 174q-243 0 -411 -174q-170 -173 -170 -413z" />
<glyph unicode="&#x153;" horiz-adv-x="1839" d="M88 451q0 197 141 335q146 140 340 140q124 0 232 -59t174 -162q56 103 155.5 162t208.5 59q198 0 310 -124.5t112 -346.5q0 -25 -2 -35h-708q6 -142 96 -230t227 -88q194 0 262 146l115 -49q-51 -101 -150 -162.5t-223 -61.5q-120 0 -228.5 60.5t-170.5 165.5 q-67 -104 -176.5 -165t-233.5 -61q-194 0 -340 140q-141 138 -141 336zM231 451q0 -143 97 -248q94 -101 241 -101q148 0 242 101q96 104 96 248q0 143 -96 247q-94 101 -242 101q-147 0 -241 -101q-97 -105 -97 -247zM1059 547h563q0 103 -78 178q-77 74 -198 74 q-111 0 -187.5 -67.5t-99.5 -184.5z" />
<glyph unicode="&#x178;" horiz-adv-x="1198" d="M27 1423h176l397 -630l397 630h177l-500 -778v-645h-148v645zM311 1694q0 43 31.5 73.5t75.5 30.5q43 0 73.5 -30.5t30.5 -73.5q0 -44 -30.5 -75.5t-73.5 -31.5q-44 0 -75.5 31.5t-31.5 75.5zM680 1694q0 43 31 73.5t75 30.5q43 0 74 -30.5t31 -73.5q0 -44 -31 -75.5 t-74 -31.5q-44 0 -75 31.5t-31 75.5z" />
<glyph unicode="&#x2c6;" horiz-adv-x="880" d="M170 1200l270 279l271 -279l-101 -63l-170 188l-170 -188z" />
<glyph unicode="&#x2dc;" horiz-adv-x="999" d="M170 1255q82 150 190 150q59 0 150 -45q98 -43 127 -43q54 0 104 92l88 -74q-27 -65 -82 -108t-116 -43q-46 0 -139 43t-138 43q-55 0 -92 -88z" />
<glyph unicode="&#x2000;" horiz-adv-x="932" />
<glyph unicode="&#x2001;" horiz-adv-x="1864" />
<glyph unicode="&#x2002;" horiz-adv-x="932" />
<glyph unicode="&#x2003;" horiz-adv-x="1864" />
<glyph unicode="&#x2004;" horiz-adv-x="621" />
<glyph unicode="&#x2005;" horiz-adv-x="466" />
<glyph unicode="&#x2006;" horiz-adv-x="310" />
<glyph unicode="&#x2007;" horiz-adv-x="310" />
<glyph unicode="&#x2008;" horiz-adv-x="233" />
<glyph unicode="&#x2009;" horiz-adv-x="372" />
<glyph unicode="&#x200a;" horiz-adv-x="103" />
<glyph unicode="&#x2010;" horiz-adv-x="864" d="M145 463v139h574v-139h-574z" />
<glyph unicode="&#x2011;" horiz-adv-x="864" d="M145 463v139h574v-139h-574z" />
<glyph unicode="&#x2012;" horiz-adv-x="864" d="M145 463v139h574v-139h-574z" />
<glyph unicode="&#x2013;" horiz-adv-x="1232" d="M145 463v139h942v-139h-942z" />
<glyph unicode="&#x2014;" horiz-adv-x="2019" d="M145 463v139h1729v-139h-1729z" />
<glyph unicode="&#x2018;" horiz-adv-x="479" d="M135 1065q0 20 23 74l143 284h45v-358q0 -41 -33 -71.5t-73 -30.5q-42 0 -73.5 29.5t-31.5 72.5z" />
<glyph unicode="&#x2019;" horiz-adv-x="479" d="M133 987v359q0 41 33.5 71.5t73.5 30.5q42 0 73 -29.5t31 -72.5q0 -22 -22 -74l-144 -285h-45z" />
<glyph unicode="&#x201a;" horiz-adv-x="479" d="M135 84q0 41 33.5 71.5t73.5 30.5q42 0 73 -29.5t31 -72.5q0 -22 -22 -74l-144 -284h-45v358z" />
<glyph unicode="&#x201c;" horiz-adv-x="792" d="M135 1065q0 20 23 74l143 284h45v-358q0 -41 -33 -71.5t-73 -30.5q-42 0 -73.5 29.5t-31.5 72.5zM449 1065q0 22 22 74l143 284h45v-358q0 -41 -33 -71.5t-73 -30.5q-42 0 -73 29.5t-31 72.5z" />
<glyph unicode="&#x201d;" horiz-adv-x="792" d="M135 987v359q0 41 33.5 71.5t73.5 30.5q42 0 73 -29.5t31 -72.5q0 -22 -22 -74l-144 -285h-45zM449 987v359q0 41 33 71.5t73 30.5q42 0 73 -29.5t31 -72.5q0 -22 -22 -74l-143 -285h-45z" />
<glyph unicode="&#x201e;" horiz-adv-x="792" d="M135 84q0 41 33.5 71.5t73.5 30.5q42 0 73 -29.5t31 -72.5q0 -22 -22 -74l-144 -284h-45v358zM449 84q0 41 33 71.5t73 30.5q42 0 73 -29.5t31 -72.5q0 -22 -22 -74l-143 -284h-45v358z" />
<glyph unicode="&#x2022;" horiz-adv-x="747" d="M172 610q-1 86 58 145.5t145 59.5q63 4 114 -33.5t74 -92.5t13 -118.5t-58 -105.5q-41 -46 -103.5 -56t-116.5 12.5t-92 73.5t-34 115z" />
<glyph unicode="&#x2026;" horiz-adv-x="1437" d="M123 84q0 43 31 72.5t75 29.5q43 0 74 -30t31 -72q0 -44 -31 -76.5t-74 -32.5q-44 0 -75 32t-31 77zM612 84q0 43 31.5 72.5t75.5 29.5q43 0 73.5 -29.5t30.5 -72.5q0 -44 -30.5 -76.5t-73.5 -32.5q-44 0 -75.5 32.5t-31.5 76.5zM1102 84q0 43 31 72.5t75 29.5 q43 0 75 -30t32 -72q0 -44 -32 -76.5t-75 -32.5q-44 0 -75 32t-31 77z" />
<glyph unicode="&#x202f;" horiz-adv-x="372" />
<glyph unicode="&#x2039;" horiz-adv-x="661" d="M94 455l316 401l102 -80l-256 -321l256 -314l-102 -78z" />
<glyph unicode="&#x203a;" horiz-adv-x="661" d="M150 141l253 314l-253 321l100 80l317 -401l-317 -392z" />
<glyph unicode="&#x205f;" horiz-adv-x="466" />
<glyph unicode="&#x20ac;" horiz-adv-x="1687" d="M70 496v147h184q-4 62 -4 70q0 43 6 86h-186v147h221q78 222 266 361q190 141 430 141q161 0 306 -67.5t241 -188.5l-129 -92q-182 194 -418 194q-175 0 -321 -96q-141 -92 -213 -252h536l-28 -147h-551q-7 -51 -7 -86q0 -9 2 -34t3 -36h518l-27 -147h-455 q65 -164 213 -267q144 -100 330 -100q263 0 445 221l145 -74q-231 -301 -590 -301q-234 0 -436 146q-198 148 -268 375h-213z" />
<glyph unicode="&#x2122;" horiz-adv-x="1533" d="M84 1325v98h541v-98h-224v-582h-96v582h-221zM754 743v725l348 -362l350 362v-725h-100v492l-250 -264l-250 266v-494h-98z" />
<glyph unicode="&#x25fc;" horiz-adv-x="901" d="M0 0v901h901v-901h-901z" />
<glyph unicode="&#xfb03;" horiz-adv-x="1746" d="M25 776l88 125h123v82q0 496 426 496v-133q-149 0 -220 -92.5t-71 -303.5v-49h481v82q0 496 426 496v-133q-149 0 -220 -92.5t-71 -303.5v-49h604v-901h-139v776h-465v-776h-135v776h-481v-776h-135v776h-211zM1415 1296q0 43 31.5 74t75.5 31q43 0 73.5 -31t30.5 -74 q0 -44 -30.5 -75t-73.5 -31q-44 0 -75.5 31t-31.5 75z" />
</font>
</defs>
</svg>
